<svg width="90" height="90" viewBox="0 0 90 90" fill="none" xmlns="http://www.w3.org/2000/svg">
<path d="M32.4375 65.0625H57.5625V62.4375H32.4375V65.0625ZM32.4375 50.0625H57.5625V47.4375H32.4375V50.0625ZM25.5 77.625C23.875 77.625 22.5313 77.0937 21.4688 76.0312C20.4063 74.9688 19.875 73.625 19.875 72V18C19.875 16.375 20.4063 15.0312 21.4688 13.9688C22.5313 12.9063 23.875 12.375 25.5 12.375H54.9375L70.125 27.5625V72C70.125 73.625 69.5938 74.9688 68.5313 76.0312C67.4688 77.0937 66.125 77.625 64.5 77.625H25.5ZM53.625 28.875V15H25.5C24.75 15 24.0625 15.3125 23.4375 15.9375C22.8125 16.5625 22.5 17.25 22.5 18V72C22.5 72.75 22.8125 73.4375 23.4375 74.0625C24.0625 74.6875 24.75 75 25.5 75H64.5C65.25 75 65.9375 74.6875 66.5625 74.0625C67.1875 73.4375 67.5 72.75 67.5 72V28.875H53.625Z" fill="#409618"/>
</svg>
